# xmcd
#
# Track frame offsets: 
#        150
#        15198
#        27049
#        38444
#        50367
#        67247
#        80050
#        92850
#        104700
#        115571
#        125824
#        142015
#        159245
#        171765
#        191127
#        203380
#        215939
#        232615
#        255170
#        267480
#        283975
#        298137
#        311586
#        325383
#        335119
#
# Disc length: 4567 seconds
#
# Revision: 0
# Processed by: cddbd v1.5.2PL0 Copyright (c) Steve Scherf et al.
# Submitted via: ExactAudioCopy v0.99pb4
#
DISCID=7511d519
DTITLE=Various Artist - There's A Dream I've Been Saving  [CD2]
DYEAR=1900
DGENRE=Country
TTITLE0=Lee Hazlewood - Sleep In The Grass
TTITLE1=Lee Hazlewood - Chico
TTITLE2=Lee Hazlewood - Am I That Easy To Forget?
TTITLE3=Lee Hazlewood - Only Mama That'll Walk The Line
TTITLE4=Lee Hazlewood - Greyhound Bus Depot
TTITLE5=Lee Hazlewood - Walk On Out Of My Mind
TTITLE6=Lee Hazlewood - Hangin' On
TTITLE7=Lee Hazlewood - Victims Of The Night
TTITLE8=Lee Hazlewood - Break My Mind
TTITLE9=Lee Hazlewood - You Can't Imagine
TTITLE10=Lee Hazlewood - Sweet Thing
TTITLE11=Lee Hazlewood - No Regrets
TTITLE12=Lee Hazlewood - Dark End Of The Street
TTITLE13=Lee Hazlewood - It Was A Very Good Year
TTITLE14=Lee Hazlewood - The Bed
TTITLE15=Lee Hazlewood - Paris Bells
TTITLE16=Lee Hazlewood - Wait Till Next Year
TTITLE17=Lee Hazlewood/ September Song
TTITLE18=Lee Hazlewood - Let's Burn Down The Cornfield
TTITLE19=Lee Hazlewood - Bye Babe
TTITLE20=Lee Hazlewood - Mary
TTITLE21=Lee Hazlewood - For Once In My Life
TTITLE22=Lee Hazlewood - I Just Learned To Run
TTITLE23=Lee Hazlewood - Me And The Wine And The City Lights
TTITLE24=Lee Hazlewood - Nothin's Gonna Blow My Mind
EXTD=
EXTT0=
EXTT1=
EXTT2=
EXTT3=
EXTT4=
EXTT5=
EXTT6=
EXTT7=
EXTT8=
EXTT9=
EXTT10=
EXTT11=
EXTT12=
EXTT13=
EXTT14=
EXTT15=
EXTT16=
EXTT17=
EXTT18=
EXTT19=
EXTT20=
EXTT21=
EXTT22=
EXTT23=
EXTT24=
PLAYORDER=
